<svg id="Layer_1" data-name="Layer 1" xmlns="http://www.w3.org/2000/svg" viewBox="0 0 60 60"><defs><style>.cls-1{fill:#fff;stroke:#4d4d4d;stroke-miterlimit:10;stroke-width:2px;}.cls-2{fill:#4d4d4d;}</style></defs><title>CE_OutageCauseWheel_20180912</title><circle class="cls-1" cx="30" cy="30" r="28"/><path class="cls-2" d="M19,17.57a8,8,0,0,1,8,8V35.5h0a8,8,0,0,0,2.7,6A6.85,6.85,0,0,1,23,34.64V31.07a4.51,4.51,0,0,0-9,0v.75a8,8,0,0,1,5-14.25Zm22.85,3A5.9,5.9,0,0,1,41,18.26a.13.13,0,0,0,0-.06s0-.09,0-.13a5.09,5.09,0,0,1,0-.58h0c3.87,0,7,2.13,7,6a4.83,4.83,0,0,1-4,3h-.25c-.31.41-.63.81-1,1.19a3.6,3.6,0,0,0,.4.28,3.35,3.35,0,0,0,1.83.47h3a1.06,1.06,0,1,1,0,2.12h-7a7,7,0,0,1,.79,9H43a3,3,0,0,1,3,3H35a7,7,0,0,1-7-7A15,15,0,0,1,41.82,20.54ZM45.73,23a.75.75,0,1,0-.75-.75A.76.76,0,0,0,45.73,23Z"/></svg>