<svg id="Layer_1" data-name="Layer 1" xmlns="http://www.w3.org/2000/svg" viewBox="0 0 60 60"><defs><style>.cls-1{fill:#fff;stroke:#4d4d4d;stroke-miterlimit:10;stroke-width:2px;}.cls-2{fill:#4d4d4d;}</style></defs><title>CE_OutageCauseWheel_20180912</title><circle class="cls-1" cx="30" cy="30" r="28"/><path class="cls-2" d="M43.07,20.36a2.39,2.39,0,0,1,.09.66v20.5A2.43,2.43,0,0,1,40.73,44H18.84a1.66,1.66,0,0,1-.32,0,2.42,2.42,0,0,0,2.34,1.77H42.74a2.44,2.44,0,0,0,2.44-2.43V22.77a2.43,2.43,0,0,0-2.11-2.41"/><path class="cls-2" d="M31.84,20.73h.61c.67,0,1.21-.75,1.21-1.67V16c0-.92-.54-1.67-1.21-1.67h-.61c-.67,0-1.22.75-1.22,1.67v3.09c0,.92.55,1.67,1.22,1.67"/><path class="cls-2" d="M23.84,20.73h.61c.67,0,1.21-.75,1.21-1.67V16c0-.92-.54-1.67-1.21-1.67h-.61c-.67,0-1.21.75-1.21,1.67v3.09c0,.92.54,1.67,1.21,1.67"/><path class="cls-2" d="M39.14,17.51h-3.9v2.26a2.43,2.43,0,0,1-2.43,2.43H31.59a2.43,2.43,0,0,1-2.43-2.43V17.51H27.24v2.26a2.43,2.43,0,0,1-2.43,2.43H23.59a2.43,2.43,0,0,1-2.43-2.43V17.51h-3.9A2.44,2.44,0,0,0,14.82,20v20.5a2.43,2.43,0,0,0,2.44,2.43H39.14a2.43,2.43,0,0,0,2.44-2.43V20a2.44,2.44,0,0,0-2.44-2.44m.54,23.09h-23V24.46h23Z"/><path class="cls-2" d="M23.65,36.34a1.37,1.37,0,0,1-1-.35,2.39,2.39,0,0,1-.56-1.28l-3,.41a4.77,4.77,0,0,0,.86,1.7,3.44,3.44,0,0,0,1.42,1,6.29,6.29,0,0,0,2.36.36,5.46,5.46,0,0,0,2.47-.48,3.3,3.3,0,0,0,1.44-1.35,3.63,3.63,0,0,0,.51-1.84,2.59,2.59,0,0,0-.31-1.31,2.34,2.34,0,0,0-.85-.89A3.19,3.19,0,0,0,26,32a3.33,3.33,0,0,0,1.18-1,2.31,2.31,0,0,0,.39-1.29,2.5,2.5,0,0,0-1-2,4.84,4.84,0,0,0-3.1-.8,4.88,4.88,0,0,0-2.89.73,3.62,3.62,0,0,0-1.38,2.11l2.88.52a2,2,0,0,1,.45-1.14,1.22,1.22,0,0,1,.88-.33,1.12,1.12,0,0,1,.82.3,1.09,1.09,0,0,1,.3.8,1.18,1.18,0,0,1-.4.9,1.38,1.38,0,0,1-1,.39,2.41,2.41,0,0,1-.4,0l-.15,2.17a3.77,3.77,0,0,1,1-.17,1.39,1.39,0,0,1,1.07.41,2,2,0,0,1,0,2.38,1.31,1.31,0,0,1-1,.45"/><path class="cls-2" d="M33.21,30.7V38h3.08V26.86H33.77a4.9,4.9,0,0,1-1.34,1.74A7.57,7.57,0,0,1,30,29.8v2.5a11.63,11.63,0,0,0,1.76-.68,9.28,9.28,0,0,0,1.44-.92"/></svg>