<svg id="Layer_1" data-name="Layer 1" xmlns="http://www.w3.org/2000/svg" viewBox="0 0 60 60"><defs><style>.cls-1{fill:#1a7cbe;stroke:#fff;stroke-miterlimit:10;stroke-width:2px;}.cls-2{fill:#fff;}</style></defs><title>CE_OutageCauseWheel_20180912</title><circle class="cls-1" cx="30" cy="30" r="28"/><rect class="cls-2" x="19.57" y="22.34" width="20.86" height="2.12" rx="1.06" ry="1.06"/><rect class="cls-2" x="20.83" y="17.65" width="6.13" height="1.85" rx="0.92" ry="0.92" transform="translate(-5.64 11.97) rotate(-25.26)"/><rect class="cls-2" x="20.58" y="15.45" width="4.56" height="1.85" rx="0.92" ry="0.92" transform="translate(-4.8 11.32) rotate(-25.26)"/><rect class="cls-2" x="20.33" y="13.25" width="2.98" height="1.85" rx="0.92" ry="0.92" transform="translate(-3.96 10.67) rotate(-25.26)"/><path class="cls-2" d="M21.44,21.45h7.73l-1.41-3-6.34,3Z"/><rect class="cls-2" x="35.18" y="15.51" width="1.85" height="6.13" rx="0.92" ry="0.92" transform="translate(3.9 43.3) rotate(-64.74)"/><rect class="cls-2" x="36.22" y="14.1" width="1.85" height="4.56" rx="0.92" ry="0.92" transform="translate(6.48 42.98) rotate(-64.74)"/><rect class="cls-2" x="37.26" y="12.69" width="1.85" height="2.98" rx="0.92" ry="0.92" transform="translate(9.07 42.66) rotate(-64.74)"/><path class="cls-2" d="M38.56,21.45H30.83l1.41-3,6.34,3Z"/><polygon class="cls-2" points="30.07 37.2 25.64 34.93 29.46 23.75 21.17 23.75 21.17 46.99 27.45 46.99 30.07 37.2"/><polygon class="cls-2" points="30.03 23.75 27.52 33.95 33.3 35.79 30.82 46.99 38.83 46.99 38.83 23.75 30.03 23.75"/></svg>