<svg id="Layer_1" data-name="Layer 1" xmlns="http://www.w3.org/2000/svg" viewBox="0 0 60 60"><defs><style>.cls-1{fill:#1a7cbe;stroke:#fff;stroke-miterlimit:10;stroke-width:2px;}.cls-2{fill:#fff;}</style></defs><title>CE_OutageCauseWheel_20180912</title><circle class="cls-1" cx="30" cy="30" r="28"/><path class="cls-2" d="M42.87,35.31c-.6-1-8.45-14.29-9.58-16S31.35,17.05,30,17.05s-2.17.53-3.29,2.25-9,15-9.58,16-2,3.07-2,4.12A3.6,3.6,0,0,0,18.85,43h22.3a3.6,3.6,0,0,0,3.74-3.52c0-1-1.42-3.14-2-4.12M30.1,39.64a2.13,2.13,0,1,1,2.12-2.12,2.12,2.12,0,0,1-2.12,2.12m1.55-10.81A15.46,15.46,0,0,0,30.71,33c0,.42-.12.81-.71.81s-.69-.39-.71-.81a15.46,15.46,0,0,0-.94-4.17,8.86,8.86,0,0,1-.57-2.55c0-1.4.69-2.72,2.22-2.72s2.22,1.32,2.22,2.72a8.86,8.86,0,0,1-.57,2.55"/></svg>