<svg id="Layer_1" data-name="Layer 1" xmlns="http://www.w3.org/2000/svg" viewBox="0 0 60 60"><defs><style>.cls-1{fill:#fff;stroke:#4d4d4d;stroke-miterlimit:10;stroke-width:2px;}.cls-2{fill:#4d4d4d;fill-rule:evenodd;}</style></defs><title>CE_OutageCauseWheel_20180912</title><circle class="cls-1" cx="30" cy="30" r="28"/><path class="cls-2" d="M28.52,33.94l5.15-17.28-1.39-.41L31.42,16l.25-.87L32.28,13l.26-.86.86.25,4.48,1.3.87.26-.26.86-.61,2.12-.26.87-.86-.25-1.26-.37L30.35,34.47Zm-7.33,9a3.51,3.51,0,0,1,1.65.42,5,5,0,0,1,9.07-.23,3.81,3.81,0,0,1,5.26,1,3,3,0,0,1,5.1,2.12,2.92,2.92,0,0,1-.48,1.63H18.07a3.41,3.41,0,0,1-.34-1.5,3.45,3.45,0,0,1,3.46-3.46m4.4-7.64,2,.59-1,3.56a6.4,6.4,0,0,1,.88-.06A5.86,5.86,0,0,1,31.53,41,17.51,17.51,0,0,0,33.1,36.9l.36.1.25-.85-9.17-2.68-.25.86.32.09c-.66,2.23-1.21,4.2-.69,6.08a6,6,0,0,1,1-.61,9.33,9.33,0,0,1,.66-4.64M37.2,14.7l-3.7-1.08-.45,1.49,3.69,1.07Z"/></svg>