<svg id="Layer_1" data-name="Layer 1" xmlns="http://www.w3.org/2000/svg" viewBox="0 0 60 60"><defs><style>.cls-1{fill:#1a7cbe;stroke:#fff;stroke-miterlimit:10;stroke-width:2px;}.cls-2{fill:#fff;}</style></defs><title>CE_OutageCauseWheel_20180912</title><circle class="cls-1" cx="30" cy="30" r="28"/><path class="cls-2" d="M32.57,46a5.69,5.69,0,0,1-1.1-3.77,56.21,56.21,0,0,1,0-6.21c.16-1.73,3.44-3.56,7.7-4.24-1.72-.34-7.07,1.18-8.21,1.86,0-1.7.67-10.67-4.82-14.89a18.43,18.43,0,0,1,2.95,9.72c-1.15-.68-3.93-3-9.26-.68,2.43-.79,8-.88,9.26,2.72.1,4.17.55,8.66-.89,12.74-.79,2.25-2.58,3.58-5.66,4.6H34.86A6.38,6.38,0,0,1,32.57,46"/><path class="cls-2" d="M31.23,12.33s-5.69.45-3.44,6.27c2.38-.41,5.25-2.27,3.44-6.27"/><path class="cls-2" d="M26,17.9c.8-2.1.67-5.27-3.39-5.72,0,0-2.32,4.77,3.39,5.72"/><path class="cls-2" d="M26.86,26.66c.82-1.71.92-4.39-2.47-5,0,0-2.27,3.86,2.47,5"/><path class="cls-2" d="M30.37,22.87c1.85-.41,4-2,2.48-5,0,0-4.44.56-2.48,5"/><path class="cls-2" d="M36.92,16.62s-3,.06-2,3.13c1.24-.13,2.79-1,2-3.13"/><path class="cls-2" d="M25.73,34.8s3,0,2.07-3.07c-1.25.1-2.82.92-2.07,3.07"/><path class="cls-2" d="M20,35.1s3,.09,2.13-3c-1.25.07-2.83.87-2.13,3"/><path class="cls-2" d="M40.25,28.55c1.37,0,3.17-.75,2.55-3.18,0,0-3.24-.31-2.55,3.18"/><path class="cls-2" d="M14.87,30.27s3.27,1.88,4.23-2.13c-1.46-.67-3.72-.73-4.23,2.13"/><path class="cls-2" d="M33.54,34.67c0,1.78,1,4.1,4.08,3.32,0,0,.42-4.17-4.08-3.32"/><path class="cls-2" d="M39.64,31.52c1.46,1.21,4,2,5.49-1.16,0,0-3.18-3.15-5.49,1.16"/><path class="cls-2" d="M25.36,20c-1.08-1.56-3.35-3-5.6-.39,0,0,2.2,3.9,5.6.39"/><path class="cls-2" d="M33.09,27.29c2.38-.41,5.25-2.27,3.44-6.27,0,0-5.69.45-3.44,6.27"/><path class="cls-2" d="M22.08,26c-.18-2.24-1.66-5-5.5-3.7,0,0,0,5.29,5.5,3.7"/><path class="cls-2" d="M32.44,32.1c1.63-.35,3.54-1.71,2.18-4.41,0,0-3.9.48-2.18,4.41"/><path class="cls-2" d="M36.39,31.37C38,31,39.94,29.65,38.58,27c0,0-3.9.49-2.19,4.42"/><path class="cls-2" d="M40.52,21.62s-3.9.48-2.18,4.41c1.62-.35,3.54-1.71,2.18-4.41"/><path class="cls-2" d="M22.8,28c-1.66-.07-3.87.75-3.24,3.71,0,0,3.9.53,3.24-3.71"/><path class="cls-2" d="M37.08,33.38c0,1.67,1,3.81,3.92,3,0,0,.26-3.92-3.92-3"/><path class="cls-2" d="M23.51,32.66s3.92.28,3-3.91c-1.66,0-3.81,1-3,3.91"/></svg>