<svg id="Layer_1" data-name="Layer 1" xmlns="http://www.w3.org/2000/svg" xmlns:xlink="http://www.w3.org/1999/xlink" viewBox="0 0 60 60"><defs><style>.cls-1{fill:none;}.cls-2{fill:#fff;stroke:#4d4d4d;stroke-miterlimit:10;stroke-width:2px;}.cls-3{clip-path:url(#clip-path);}.cls-4{fill:#4d4d4d;}</style><clipPath id="clip-path"><polygon class="cls-1" points="24.88 46.85 13.86 46.85 13.86 25.3 31.31 25.3 24.88 46.85"/></clipPath></defs><title>CE_OutageCauseWheel_20180912</title><ellipse class="cls-2" cx="30" cy="30" rx="28" ry="27.96"/><g class="cls-3"><path class="cls-4" d="M21.8,39a.76.76,0,1,0,.76.76A.76.76,0,0,0,21.8,39Z"/><path class="cls-4" d="M21.48,42.71a2,2,0,0,1-1.65-.86v2a.69.69,0,0,0,.69.69h1.83a.69.69,0,0,0,.69-.69V42.71Z"/><path class="cls-4" d="M29.93,40.94H24.25a.31.31,0,0,1-.29-.33V38.87a.31.31,0,0,1,.29-.33h5.68V35.9H23.28a.34.34,0,0,1-.34-.34V33.83a.34.34,0,0,1,.34-.34h6.65v-1.3H23.65a2,2,0,0,0-2,2V36.3a.36.36,0,0,1-.19.31c-.56.27-2,1.17-2,2.06v1.56a2,2,0,0,0,2,2h8.45Zm-8.13.28a1.44,1.44,0,1,1,1.43-1.43A1.44,1.44,0,0,1,21.8,41.22Z"/></g><path class="cls-4" d="M45.85,19.84l-1-.28.18-.6a.6.6,0,0,0-1.16-.34l-.18.61-6.89-2,.71-2.41c.19-.67-.33-.92-1-1.11s-1.24-.26-1.43.4l-.7,2.42-6.89-2,.17-.61a.6.6,0,0,0-.41-.75.61.61,0,0,0-.75.41l-.17.61-.95-.27c-.43-.13-.59.34-.76.92s-.28,1.07.15,1.19l4.86,1.41,2.93,5.32L25.94,45.48c-.19.66,2.22,1.36,2.42.7L35,23.47l5.33-2.93L45.23,22c.43.13.59-.34.76-.92s.29-1.07-.14-1.19m-13,2.07-2.32-4.22,3.27.95Zm2.42.7,1-3.27,3.27.95Z"/></svg>