<svg id="Layer_1" data-name="Layer 1" xmlns="http://www.w3.org/2000/svg" viewBox="0 0 60 60"><defs><style>.cls-1{fill:#1a7cbe;stroke:#fff;stroke-miterlimit:10;stroke-width:2px;}.cls-2{fill:#fff;}</style></defs><title>CE_OutageCauseWheel_20180912</title><circle class="cls-1" cx="30" cy="30" r="28"/><path class="cls-2" d="M41.55,31.27h3a4.24,4.24,0,0,0,3.14-1.4,5.66,5.66,0,0,0,1.88-4.17A5.58,5.58,0,0,0,44,20.13a5.28,5.28,0,0,0-1.71.28l-.78.25-.08-.82a7.27,7.27,0,0,0-12.48-4.31A9.76,9.76,0,0,1,33.31,21a8.13,8.13,0,0,1,8.54,8.08,7.93,7.93,0,0,1-.3,2.16"/><polygon class="cls-2" points="19.16 41.3 26.34 41.3 26.34 46.71 30.99 38.27 24.12 38.27 28.68 31.75 22.94 31.75 19.16 41.3"/><path class="cls-2" d="M28.9,34.68h5.39a4.29,4.29,0,0,0,3.15-1.4,5.64,5.64,0,0,0,1.87-4.17A5.56,5.56,0,0,0,32,23.82l-.77.24-.08-.8A7.28,7.28,0,0,0,16.67,24a7.62,7.62,0,0,0,.14,1.43l.16.78H14.69a4.25,4.25,0,0,0,0,8.49h5.15l2.05-5.18H32.53Z"/></svg>